<svg width="137" height="48" viewBox="0 0 137 48" fill="none" xmlns="http://www.w3.org/2000/svg">
<path d="M113.514 42.9735C113.514 43.9873 113.105 44.49 112.296 44.49H107.902C107.093 44.49 106.684 43.9873 106.684 42.9735V36.8648C106.684 36.5155 106.787 36.2344 106.983 36.0129C107.187 35.7913 107.451 35.6806 107.8 35.6806H112.39C112.739 35.6806 113.012 35.7913 113.207 36.0129C113.412 36.2344 113.506 36.5155 113.506 36.8648V42.9735H113.514ZM117.806 43.9277V35.6806C117.806 34.5986 117.576 33.7892 117.125 33.244C116.46 32.4346 115.251 32.0256 113.514 32.0256H106.684C104.939 32.0256 103.738 32.4346 103.074 33.244C102.623 33.7892 102.393 34.5986 102.393 35.6806V43.9277C102.393 45.2738 102.844 46.3132 103.747 47.0459C104.53 47.6849 105.509 48.0001 106.676 48.0001H113.506C114.681 48.0001 115.651 47.6849 116.443 47.0459C117.355 46.3132 117.806 45.2738 117.806 43.9277Z" fill="#5F6060"/>
<path d="M90.1807 35.6465H99.2159L100.936 32.0342H89.0822C87.362 32.0342 86.1699 32.4346 85.5056 33.2355C85.0543 33.7722 84.8329 34.5816 84.8329 35.6465V37.6231C84.8329 38.9522 85.2842 39.9831 86.1784 40.7072C86.9533 41.3377 87.9241 41.6529 89.0822 41.6529H94.7111C95.4519 41.7892 95.8181 42.2323 95.8181 42.999V43.0416C95.8181 43.9277 95.4179 44.3622 94.6174 44.3622H83.0957L85.2416 47.8382H95.8096C96.9677 47.8382 97.9385 47.523 98.7134 46.8925C99.6076 46.1684 100.059 45.1375 100.059 43.8084V41.9937C100.059 40.9287 99.8375 40.1279 99.3862 39.5826C98.7305 38.7818 97.5383 38.3814 95.8096 38.3814H90.2829C89.4824 38.3814 89.0822 37.9298 89.0822 37.0352V36.9926C89.0822 36.6348 89.1844 36.3281 89.3888 36.0555C89.5846 35.7743 89.8571 35.6465 90.1807 35.6465Z" fill="#5F6060"/>
<path d="M77.5602 37.146C77.5602 38.1172 77.1259 38.6114 76.2573 38.6114H70.9095V35.6465H76.2573C77.1259 35.6465 77.5602 36.1322 77.5602 37.1119V37.146ZM81.8095 38.211V35.6465C81.8095 33.2355 80.464 32.0342 77.7646 32.0342H66.6602V47.8382H70.901V41.8318H73.7792L77.9434 47.8382L82.8399 47.8212L78.6758 41.8318C80.7706 41.67 80.6003 41.1332 81.3497 40.2131C81.6562 39.6678 81.8095 39.0033 81.8095 38.211Z" fill="#D71920"/>
<path d="M49.3652 47.8297H64.5146V44.2173H53.6146V41.8233H61.747V38.0746H53.6146V35.6465H64.5146V32.0256H49.3652V47.8297Z" fill="#D71920"/>
<path d="M43.1569 42.8116C43.1569 43.3228 43.0547 43.6891 42.8503 43.8936C42.6459 44.1066 42.3138 44.2088 41.854 44.2088H36.5062V41.4229H41.854C42.3564 41.4229 42.697 41.5251 42.8844 41.7296C43.0632 41.9426 43.1569 42.3004 43.1569 42.8116ZM43.1569 36.9245C43.1569 37.4272 43.0547 37.7509 42.8418 37.8957C42.68 38.015 42.3564 38.0746 41.854 38.0746H36.5062V35.6465H41.854C42.3649 35.6465 42.7141 35.7317 42.8929 35.9106C43.0717 36.0896 43.1569 36.4303 43.1569 36.9245ZM47.4062 41.8659C47.4062 41.0651 46.8271 40.392 46.5206 39.8553C46.8271 39.3185 47.4062 38.654 47.4062 37.8617V35.6465C47.4062 33.2355 46.0522 32.0342 43.3613 32.0342H32.2568V47.8382H43.3527C46.0522 47.8382 47.3977 46.6369 47.3977 44.2259V41.8659H47.4062Z" fill="#D71920"/>
<path d="M25.53 41.5507L30.9374 33.7807L30.9289 32.0256H27.2842L23.4011 37.6572L19.4668 32.0256H14.5703L21.2892 41.5507V47.8297H25.53V41.5507Z" fill="#D71920"/>
<path d="M14.3404 35.6805L11.7942 32.0681H4.2408C2.52064 32.0681 1.32844 32.4685 0.664222 33.2694C0.221407 33.8147 0 34.6155 0 35.6805V43.8423C0 45.1714 0.442815 46.2023 1.34547 46.9265C2.1204 47.5569 3.09119 47.8722 4.24932 47.8722H18.2235L17.9936 44.3961H5.45003C4.64955 44.3961 4.24932 43.8935 4.24932 42.8967V36.8562C4.24932 36.5154 4.3515 36.2342 4.54736 36.0127C4.74322 35.7997 5.01573 35.689 5.35635 35.689H14.3404V35.6805Z" fill="#D71920"/>
<path d="M134.445 35.638L134.454 32.0256H124.61C122.89 32.0256 121.697 32.4261 121.033 33.2269C120.582 33.7637 120.36 34.573 120.36 35.638V43.7999C120.36 45.1289 120.803 46.1598 121.706 46.884C122.481 47.5144 123.452 47.8297 124.61 47.8297H137L135.603 44.3536H125.819C125.018 44.3536 124.618 43.851 124.618 42.8542V36.8052C124.618 36.4644 124.72 36.1832 124.916 35.9617C125.112 35.7487 125.385 35.638 125.725 35.638H134.445Z" fill="#5F6060"/>
<path d="M83.4531 23.8552C80.5563 22.2288 75.4391 18.7118 74.3983 12.2496C73.453 6.37568 73.7999 4.5244 73.9647 4.0486C77.9977 2.89804 83.3924 2.29256 83.4531 2.28391V0C83.1929 0.0259526 77.3559 0.718021 73.1407 1.95509C72.8372 2.01565 72.5423 2.19732 72.3168 2.46549C71.6836 3.20082 70.9811 5.04345 72.1954 12.6043C73.479 20.5717 81.0073 25.1221 83.4531 26.4111" fill="url(#paint0_linear)"/>
<path d="M83.4531 23.8552C86.35 22.2288 91.4671 18.7118 92.5079 12.2496C93.4533 6.37568 93.1063 4.5244 92.9416 4.0486C88.9085 2.89804 83.5138 2.29256 83.4531 2.28391V0C83.7133 0.0259526 89.5504 0.718021 93.7655 1.95509C94.0691 2.01565 94.364 2.19732 94.5895 2.4655C95.2226 3.20082 95.9251 5.04345 94.7109 12.6043C93.4273 20.5717 85.899 25.1221 83.4531 26.4111" fill="#D71920"/>
<defs>
<linearGradient id="paint0_linear" x1="83.8989" y1="13.5626" x2="69.4894" y2="13.5626" gradientUnits="userSpaceOnUse">
<stop stop-color="#6D6E71"/>
<stop offset="0.19" stop-color="#67676A"/>
<stop offset="0.47" stop-color="#555456"/>
<stop offset="0.8" stop-color="#383537"/>
<stop offset="1" stop-color="#231F20"/>
</linearGradient>
</defs>
</svg>
